<svg version="1" xmlns="http://www.w3.org/2000/svg" width="170.667" height="170.667" viewBox="0 0 128.000000 128.000000"><path d="M102.2 13.5c-7.5 5.4-2.7 17.7 6.3 16 3.9-.7 7.5-4.8 7.5-8.5 0-6.4-8.7-11.1-13.8-7.5zM49 22c-17.1 3.6-32.4 19.4-36 37.3-6.1 30.3 19.5 59.1 50.2 56.4 12.3-1.1 22.1-5.7 30.5-14.5 9.5-9.7 14-22.7 13-36.7-1.3-18-13.5-34.1-30.6-40.6-6.4-2.4-20-3.4-27.1-1.9zm22.1 11.6c15.4 4.9 25.3 19.2 25.1 35.9-.2 11.6-6.4 22.8-16.3 29.4-7.2 4.8-13.9 6.5-23.4 5.9-25.4-1.7-41.1-29-30-52.4 4.7-9.9 15.8-18.3 26.5-20.2 5.7-1 12.3-.5 18.1 1.4z"/></svg>