<svg xmlns="http://www.w3.org/2000/svg" width="49" height="41" viewBox="0 0 49 41">
  <path fill="#FFFFFF" fill-rule="evenodd" d="M449.5,4231 C442.84927,4231 436.789607,4233.03046 432.332986,4236.39537 C427.876365,4239.76029 425,4244.54209 425,4249.8838 C425,4254.05878 426.781988,4257.92873 429.695833,4261.02862 L426.718403,4269.8804 C426.520186,4270.4842 426.696477,4271.14708 427.169241,4271.57563 C427.642006,4272.00419 428.323939,4272.11927 428.913194,4271.86994 L439.836111,4267.2333 C442.828303,4268.22102 446.072411,4268.76761 449.5,4268.76761 C450.089037,4268.77586 450.636928,4268.46917 450.933877,4267.96498 C451.230825,4267.46079 451.230825,4266.8372 450.933877,4266.33301 C450.636928,4265.82882 450.089037,4265.52213 449.5,4265.53038 C446.156787,4265.53038 443.03939,4265.01263 440.261458,4264.01293 C439.869252,4263.87073 439.436979,4263.8828 439.053472,4264.04665 L430.954861,4267.4862 L433.081597,4261.18036 C433.274878,4260.58918 433.109589,4259.94054 432.65625,4259.51117 C429.832461,4256.82821 428.266667,4253.46524 428.266667,4249.8838 C428.266667,4245.69021 430.504127,4241.84203 434.323611,4238.95817 C438.143095,4236.07432 443.521818,4234.23722 449.5,4234.23722 C455.478182,4234.23722 460.856905,4236.07432 464.676389,4238.95817 C468.495873,4241.84203 470.733333,4245.69021 470.733333,4249.8838 C470.733333,4257.0215 464.080419,4263.31518 454.655208,4265.05829 C454.080792,4265.1637 453.606759,4265.56479 453.411673,4266.11048 C453.216587,4266.65616 453.330086,4267.26353 453.709416,4267.7038 C454.088747,4268.14407 454.676278,4268.35034 455.250694,4268.24493 C465.811497,4266.2918 474,4258.97566 474,4249.8838 C474,4244.54209 471.123635,4239.76029 466.667014,4236.39537 C462.210393,4233.03046 456.15073,4231 449.5,4231 Z" transform="translate(-425 -4231)"/>
</svg>
