<svg xmlns="http://www.w3.org/2000/svg" width="48" height="48" viewBox="0 0 48 48">
  <g fill="none" fill-rule="evenodd" transform="translate(0 1)">
    <path fill="#FFFFFF" fill-rule="nonzero" d="M27 47L21 47C19.346 47 18 45.59 18 43.858L18 34.132C18 33.502 17.552 32.99 17 32.99 15.346 32.99 14 31.58 14 29.848L14 16.142C14 14.41 15.346 13 17 13L31 13C32.654 13 34 14.41 34 16.142L34 29.846C34 31.578 32.654 32.988 31 32.988 30.45 32.988 30 33.5 30 34.13L30 43.856C30 45.59 28.654 47 27 47zM17 15C16.448 15 16 15.512 16 16.142L16 29.846C16 30.476 16.448 30.988 17 30.988 18.654 30.988 20 32.398 20 34.13L20 43.856C20 44.488 20.448 45 21 45L27 45C27.55 45 28 44.488 28 43.858L28 34.132C28 32.4 29.346 30.99 31 30.99 31.55 30.99 32 30.478 32 29.848L32 16.142C32 15.512 31.55 15 31 15L17 15zM41 47L37 47C35.346 47 34 45.59 34 43.858L34 37C34 35.8056641 36 35.7023926 36 37 36 38.2976074 36 43.858 36 43.858 36 44.488 36.45 45 37 45L41 45C41.55 45 42 44.488 42 43.858L42 34.132C42 32.4 43.346 30.99 45 30.99 45.55 30.99 46 30.478 46 29.848L46 18.142C46 17.512 45.55 17 45 17L38 17C36.6062012 17 36.5429688 15 38 15L45 15C46.654 15 48 16.41 48 18.142L48 29.846C48 31.578 46.654 32.988 45 32.988 44.45 32.988 44 33.5 44 34.13L44 43.856C44 45.59 42.654 47 41 47z"/>
    <path stroke="#FFFFFF" stroke-width="2" d="M12.3572697 9.45418465C12.7664888 8.72919807 13 7.89186876 13 7 13 4.23857625 10.7614237 2 8 2 5.23857625 2 3 4.23857625 3 7 3 9.76142375 5.23857625 12 8 12L8 12C8.8421257 12 9.63562605 11.7918101 10.3318401 11.4240913M28.3572697 7.45418465C28.7664888 6.72919807 29 5.89186876 29 5 29 2.23857625 26.7614237 0 24 0 21.2385763 0 19 2.23857625 19 5 19 7.76142375 21.2385763 10 24 10L24 10C24.8421257 10 25.635626 9.79181012 26.3318401 9.42409126M44.3572697 9.45418465C44.7664888 8.72919807 45 7.89186876 45 7 45 4.23857625 42.7614237 2 40 2 37.2385763 2 35 4.23857625 35 7 35 9.76142375 37.2385763 12 40 12L40 12C40.8421257 12 41.635626 11.7918101 42.3318401 11.4240913" stroke-linecap="round"/>
    <path fill="#FFFFFF" fill-rule="nonzero" d="M11,47 L7,47 C5.346,47 4,45.59 4,43.858 L4,34.132 C4,33.502 3.552,32.99 3,32.99 C1.346,32.99 0,31.58 0,29.848 L0,18.142 C0,16.41 1.346,15 3,15 C3,15 8.58618164,15 10,15 C11.4138184,15 11.4365234,17 10,17 C8.56347656,17 3,17 3,17 C2.448,17 2,17.512 2,18.142 L2,29.846 C2,30.476 2.448,30.988 3,30.988 C4.654,30.988 6,32.398 6,34.13 L6,43.856 C6,44.488 6.448,45 7,45 L11,45 C11.552,45 12,44.488 12,43.858 C12,43.858 12,38.3007812 12,37 C12,35.6992188 14,35.5749512 14,37 C14,38.4250488 14,43.858 14,43.858 C14,45.59 12.654,47 11,47 Z"/>
  </g>
</svg>
