<svg xmlns="http://www.w3.org/2000/svg" viewBox="0 0 420.11 117.06"><title>Lunadio</title><g id="Layer_2" data-name="Layer 2"><g id="bigsmall"><path d="M134.85,82.25h18.79v10H124.77V41.86h10.08Z" style="fill:#fff"/><path d="M198,73.69a19.55,19.55,0,0,1-39.1.07V41.86H169V73.69a9.46,9.46,0,0,0,9.5,9.43,9.2,9.2,0,0,0,6.62-2.74,9.57,9.57,0,0,0,2.81-6.62h-.07V41.86h10.08V73.69Z" style="fill:#fff"/><path d="M244.43,92.34,216.06,62.88V92.34H206V41.86h3.17L237,70.09V41.86h10.08V92.34Z" style="fill:#fff"/><path d="M280.06,41.86,303.9,92.34H292.74l-14.4-30.67L262.71,92.34h-11.3l25.71-50.48Z" style="fill:#fff"/><path d="M322.47,41.86a24.81,24.81,0,0,1,17.79,7.34,25.61,25.61,0,0,1,7.42,17.86,24.19,24.19,0,0,1-2,9.87,23.1,23.1,0,0,1-5.4,8,25.28,25.28,0,0,1-17.79,7.42H312.32v-.07h-4.1V41.86Zm0,40.4a15.16,15.16,0,0,0,0-30.31h-4.18V82.25Z" style="fill:#fff"/><path d="M352.71,92.26V41.86h10.08v50.4Z" style="fill:#fff"/><path d="M420.11,67.06A26.14,26.14,0,1,1,394,40.92,26.18,26.18,0,0,1,420.11,67.06Zm-41.91,0A15.77,15.77,0,1,0,394,51.29,15.76,15.76,0,0,0,378.2,67.06Z" style="fill:#fff"/><path d="M53.53,22A41.53,41.53,0,1,1,12,63.53,41.58,41.58,0,0,1,53.53,22m0-12a53.53,53.53,0,1,0,53.53,53.53A53.53,53.53,0,0,0,53.53,10Z" style="fill:#fff"/><circle cx="107.06" cy="10" r="10" style="fill:#fff"/></g></g></svg>