<svg xmlns="http://www.w3.org/2000/svg" width="50" height="19" viewBox="0 0 50 19">
  <g fill="#FFFFFF">
    <path d="M47.2727273.15L23.030303.15C21.5151515.15 20.3030303 1.35 20.3030303 2.85L20.3030303 16.15C20.3030303 17.65 21.5151515 18.85 23.030303 18.85L47.2727273 18.85C48.7878788 18.85 50 17.65 50 16.15L50 2.85C50 1.35 48.7878788.15 47.2727273.15zM39.8484848 9.7L44.6969697 13.7C44.7979798 13.8 44.8484848 13.95 44.7474747 14.1L44.1414141 14.8C44.040404 14.9 43.8888889 14.95 43.7373737 14.85L38.6363636 10.6C38.5353535 10.5 38.3838384 10.5 38.2828283 10.6L35.2525253 13.1C35.1515152 13.2 35 13.2 34.8989899 13.1L31.8686869 10.6C31.7676768 10.5 31.6161616 10.5 31.5151515 10.6L26.4141414 14.85C26.3131313 14.95 26.1111111 14.95 26.010101 14.8L25.4040404 14.1C25.3030303 14 25.3030303 13.8 25.4545455 13.7L30.3030303 9.7C30.4545455 9.6 30.4545455 9.4 30.3030303 9.3L25.4545455 5.3C25.3535354 5.2 25.3030303 5.05 25.4040404 4.9L26.010101 4.2C26.1111111 4.1 26.2626263 4.05 26.4141414 4.15L34.8989899 11.15C35 11.25 35.1515152 11.25 35.2525253 11.15L43.7373737 4.15C43.8383838 4.05 44.040404 4.05 44.1414141 4.2L44.7474747 4.9C44.8484848 5 44.8484848 5.2 44.6969697 5.3L39.8484848 9.3C39.7474747 9.4 39.7474747 9.6 39.8484848 9.7zM15.9090909 3.3L1.91919192 3.3C1.11111111 3.3.454545455 3.95.454545455 4.75.454545455 5.55 1.11111111 6.2 1.91919192 6.2L15.9090909 6.2C16.7171717 6.2 17.3737374 5.55 17.3737374 4.75 17.3737374 3.95 16.7171717 3.3 15.9090909 3.3zM15.9090909 8.05L6.76767677 8.05C5.95959596 8.05 5.3030303 8.7 5.3030303 9.5 5.3030303 10.3 5.95959596 10.95 6.76767677 10.95L15.9090909 10.95C16.7171717 10.95 17.3737374 10.3 17.3737374 9.5 17.3737374 8.7 16.7171717 8.05 15.9090909 8.05zM15.9090909 12.85L11.5656566 12.85C10.7575758 12.85 10.1010101 13.5 10.1010101 14.3 10.1010101 15.1 10.7575758 15.75 11.5656566 15.75L15.9090909 15.75C16.7171717 15.75 17.3737374 15.1 17.3737374 14.3 17.3737374 13.5 16.7171717 12.85 15.9090909 12.85z"/>
  </g>
</svg>
